<?xml version="1.0" encoding="UTF-8" standalone="no"?>
<!-- Generator: Adobe Illustrator 19.1.0, SVG Export Plug-In . SVG Version: 6.00 Build 0)  -->

<svg
   xmlns:dc="http://purl.org/dc/elements/1.1/"
   xmlns:cc="http://creativecommons.org/ns#"
   xmlns:rdf="http://www.w3.org/1999/02/22-rdf-syntax-ns#"
   xmlns:svg="http://www.w3.org/2000/svg"
   xmlns="http://www.w3.org/2000/svg"
   xmlns:sodipodi="http://sodipodi.sourceforge.net/DTD/sodipodi-0.dtd"
   xmlns:inkscape="http://www.inkscape.org/namespaces/inkscape"
   version="1.1"
   id="Layer_1"
   x="0px"
   y="0px"
   viewBox="-321 195 380 380"
   style="enable-background:new -321 195 380 380;"
   xml:space="preserve"
   inkscape:version="0.91 r13725"
   sodipodi:docname="clock6.svg"><metadata
     id="metadata23"><rdf:RDF><cc:Work
         rdf:about=""><dc:format>image/svg+xml</dc:format><dc:type
           rdf:resource="http://purl.org/dc/dcmitype/StillImage" /></cc:Work></rdf:RDF></metadata><defs
     id="defs21" /><sodipodi:namedview
     pagecolor="#ffffff"
     bordercolor="#666666"
     borderopacity="1"
     objecttolerance="10"
     gridtolerance="10"
     guidetolerance="10"
     inkscape:pageopacity="0"
     inkscape:pageshadow="2"
     inkscape:window-width="1920"
     inkscape:window-height="1017"
     id="namedview19"
     showgrid="false"
     inkscape:zoom="1.2421053"
     inkscape:cx="-29.616885"
     inkscape:cy="119.15254"
     inkscape:window-x="-8"
     inkscape:window-y="-8"
     inkscape:window-maximized="1"
     inkscape:current-layer="Layer_1"
     showguides="true"
     inkscape:guide-bbox="true"><sodipodi:guide
       position="6.4406778,379.99999"
       orientation="0,1"
       id="guide4139" /><sodipodi:guide
       position="-11.271186,-0.80508472"
       orientation="0,1"
       id="guide4141" /></sodipodi:namedview><style
     type="text/css"
     id="style3">
	.st0{fill:#C1C1C1;}
	.st1{fill:#A5A5A5;}
	.st2{fill:#666666;}
</style><path
     class="st0"
     d="M-110.1,567.8l0.6,5.7l-2.6,0.3l-0.6-5.7L-110.1,567.8z M-150.6,197.4l0.6,5.7l-2.6,0.3l-0.6-5.7L-150.6,197.4z   M-92.6,564.9l1.2,5.6l-2.5,0.5l-1.2-5.6L-92.6,564.9z M-168.7,200.1l1.2,5.6l-2.5,0.5l-1.2-5.6L-168.7,200.1z M-73.3,559.6l1.8,5.4  l-2.4,0.8l-1.8-5.4L-73.3,559.6z M-188.6,205.3l1.8,5.5l-2.4,0.8l-1.8-5.5L-188.6,205.3L-188.6,205.3z M-56.7,553.2l2.3,5.2l-2.4,1  l-2.3-5.2L-56.7,553.2z M-205.8,211.7l2.3,5.3l-2.4,1l-2.3-5.3L-205.8,211.7z M-205.9,553.2l2.4,1l-2.3,5.2l-2.4-1L-205.9,553.2z   M-56.8,211.7l2.4,1l-2.3,5.3l-2.4-1L-56.8,211.7z M-189.3,559.6l2.4,0.8l-1.8,5.4l-2.4-0.8L-189.3,559.6z M-74,205.3l2.4,0.8  l-1.8,5.5l-2.4-0.8L-74,205.3z M-170.1,564.9l2.5,0.5l-1.2,5.6l-2.5-0.5L-170.1,564.9z M-93.9,200.2l2.5,0.5l-1.2,5.6l-2.5-0.5  L-93.9,200.2L-93.9,200.2z M-152.6,567.8l2.6,0.3l-0.6,5.7l-2.6-0.3L-152.6,567.8z M-112,197.4l2.6,0.3l-0.6,5.7l-2.6-0.3  L-112,197.4z M-280,493.1l1.5,2.1l-4.6,3.4l-1.5-2.1L-280,493.1z M20.4,272.6l1.5,2.1l-4.6,3.4l-1.5-2.1L20.4,272.6L20.4,272.6z   M-268.8,506.9l1.7,1.9l-4.3,3.8l-1.7-1.9L-268.8,506.9z M8.8,258.5l1.7,1.9l-4.3,3.8l-1.7-1.9L8.8,258.5L8.8,258.5z M-254.8,521.2  l1.9,1.7l-3.8,4.2l-1.9-1.7L-254.8,521.2z M-5.9,244l1.9,1.7l-3.9,4.3l-1.9-1.7L-5.9,244z M-241.1,532.5l2.1,1.5l-3.4,4.6l-2.1-1.5  L-241.1,532.5L-241.1,532.5z M-20.2,232.5l2.1,1.5l-3.4,4.6l-2.1-1.5L-20.2,232.5z M-313.7,404.9l0.3,2.6l-5.7,0.6l-0.3-2.6  L-313.7,404.9z M56.5,363l0.3,2.6l-5.7,0.6l-0.3-2.6L56.5,363L56.5,363z M-311,422.5l0.5,2.5l-5.6,1.2l-0.5-2.5L-311,422.5z   M53.4,345l0.5,2.5l-5.6,1.2l-0.5-2.5L53.4,345z M-305.9,441.8l0.8,2.4l-5.4,1.8l-0.8-2.4L-305.9,441.8L-305.9,441.8z M47.9,325.2  l0.8,2.4l-5.5,1.8l-0.8-2.4L47.9,325.2L47.9,325.2z M-299.7,458.4l1,2.4l-5.2,2.3l-1-2.4L-299.7,458.4z M41.2,308.1l1,2.4l-5.3,2.3  l-1-2.4L41.2,308.1z M-313.7,404.9l0.3,2.6l-5.7,0.6l-0.3-2.6L-313.7,404.9z M56.5,363l0.3,2.6l-5.7,0.6l-0.3-2.6L56.5,363L56.5,363  z M-311,422.5l0.5,2.5l-5.6,1.2l-0.5-2.5L-311,422.5z M53.4,345l0.5,2.5l-5.6,1.2l-0.5-2.5L53.4,345z M-305.9,441.8l0.8,2.4  l-5.4,1.8l-0.8-2.4L-305.9,441.8L-305.9,441.8z M47.9,325.2l0.8,2.4l-5.5,1.8l-0.8-2.4L47.9,325.2L47.9,325.2z M-299.7,458.4l1,2.4  l-5.2,2.3l-1-2.4L-299.7,458.4z M41.2,308.1l1,2.4l-5.3,2.3l-1-2.4L41.2,308.1z M-241.8,232l3.4,4.6l-2.1,1.5l-3.4-4.6L-241.8,232z   M-22.2,532.9l3.4,4.7l-2.1,1.5l-3.4-4.7L-22.2,532.9L-22.2,532.9z M-256.1,243.4l3.8,4.3l-1.9,1.7l-3.8-4.3L-256.1,243.4z   M-8.4,521.7l3.8,4.3l-1.9,1.7l-3.8-4.3L-8.4,521.7z M-270.8,257.8l4.2,3.8l-1.7,1.9l-4.2-3.8L-270.8,257.8z M5.6,507.5l4.3,3.9  l-1.7,1.9l-4.3-3.9L5.6,507.5z M-282.5,271.9l4.6,3.4l-1.5,2.1l-4.6-3.4L-282.5,271.9z M16.8,493.7l4.6,3.4l-1.5,2.1l-4.6-3.4  L16.8,493.7z M-303.9,308.3l5.2,2.3l-1,2.4l-5.2-2.3L-303.9,308.3z M37.1,458.2l5.3,2.3l-1,2.4l-5.3-2.3L37.1,458.2L37.1,458.2z   M-310.6,325.4l5.4,1.8l-0.8,2.4l-5.4-1.8L-310.6,325.4z M43.3,441.5l5.5,1.8l-0.8,2.4l-5.5-1.8L43.3,441.5z M-316.1,345.2l5.6,1.2  l-0.5,2.5l-5.6-1.2L-316.1,345.2z M48.3,422.3l5.6,1.2l-0.5,2.5l-5.6-1.2L48.3,422.3z M-319.1,363.2l5.7,0.6l-0.3,2.6l-5.7-0.6  L-319.1,363.2z M51.1,404.7l5.7,0.6l-0.3,2.6l-5.7-0.6L51.1,404.7L51.1,404.7z"
     id="path5" /><g
     id="g7"><path
       class="st1"
       d="M-138.9,217.6v-15.7h-5.7v-2c0.8,0,1.4-0.1,2.1-0.2s1.3-0.3,1.9-0.7c0.6-0.3,1.1-0.8,1.4-1.3   c0.4-0.6,0.7-1.3,0.8-2h2v21.9H-138.9z M-130.6,200.3c0.3-1,0.8-1.7,1.3-2.4s1.3-1.3,2.3-1.6c0.9-0.4,1.9-0.6,3.1-0.6   c1,0,1.8,0.1,2.7,0.4c0.9,0.3,1.5,0.7,2.2,1.2c0.6,0.5,1.1,1.2,1.4,1.9s0.6,1.6,0.6,2.7c0,1-0.2,1.8-0.5,2.6   c-0.3,0.8-0.7,1.4-1.2,2s-1.1,1.2-1.7,1.5c-0.7,0.5-1.3,1-1.9,1.3c-0.7,0.4-1.3,0.8-2,1.3c-0.7,0.5-1.3,0.9-1.8,1.3   c-0.6,0.5-1.1,1-1.4,1.4s-0.7,1.2-0.8,1.8h11.2v2.3h-14.3c0.1-1.3,0.3-2.4,0.7-3.3c0.4-0.9,0.8-1.7,1.3-2.4s1.2-1.3,1.9-1.8   c0.7-0.5,1.4-1,2.2-1.4c1-0.6,1.7-1.1,2.4-1.5c0.7-0.5,1.3-1,1.7-1.4c0.5-0.5,0.8-1.1,1.1-1.6c0.3-0.6,0.4-1.3,0.4-2   c0-0.6-0.1-1.2-0.4-1.6c-0.2-0.5-0.5-0.9-0.9-1.3c-0.4-0.4-0.9-0.6-1.3-0.8c-0.5-0.2-1.1-0.3-1.6-0.3c-0.8,0-1.4,0.2-1.9,0.5   c-0.6,0.3-1,0.8-1.3,1.3s-0.6,1.1-0.8,1.7c-0.2,0.7-0.2,1.3-0.2,1.9h-2.6C-131,202.3-130.9,201.3-130.6,200.3z M-39.7,240.4v-15.7   h-5.7v-2.1c0.8,0,1.4-0.1,2.1-0.2c0.7-0.1,1.3-0.3,1.9-0.7c0.6-0.3,1.1-0.8,1.4-1.3c0.4-0.6,0.7-1.3,0.8-2h2v21.9L-39.7,240.4   L-39.7,240.4z M20.2,289.4c0.3-1,0.8-1.7,1.3-2.4c0.6-0.7,1.3-1.3,2.3-1.6c0.9-0.4,1.9-0.6,3.1-0.6c1,0,1.8,0.1,2.7,0.4   c0.9,0.3,1.5,0.7,2.2,1.2c0.6,0.5,1.1,1.2,1.4,1.9c0.4,0.8,0.6,1.6,0.6,2.7c0,1-0.2,1.8-0.5,2.6s-0.7,1.4-1.2,2   c-0.5,0.6-1.1,1.2-1.7,1.5c-0.7,0.5-1.3,1-1.9,1.3s-1.3,0.8-2,1.3c-0.7,0.5-1.3,0.9-1.8,1.3c-0.6,0.5-1.1,1-1.4,1.4   c-0.4,0.5-0.7,1.2-0.8,1.8h11.2v2.3H19.3c0.1-1.3,0.3-2.4,0.7-3.3c0.4-0.9,0.8-1.7,1.3-2.4c0.6-0.7,1.2-1.3,1.9-1.8   c0.7-0.5,1.4-1,2.2-1.4c1-0.6,1.7-1.1,2.4-1.5c0.7-0.5,1.3-1,1.7-1.4c0.5-0.5,0.8-1.1,1.1-1.6c0.3-0.6,0.4-1.3,0.4-2   c0-0.6-0.1-1.2-0.4-1.6c-0.2-0.5-0.5-0.9-0.9-1.3c-0.4-0.4-0.9-0.6-1.3-0.8c-0.5-0.2-1.1-0.3-1.6-0.3c-0.8,0-1.4,0.2-1.9,0.5   c-0.6,0.3-1,0.8-1.3,1.3c-0.4,0.5-0.6,1.1-0.8,1.7s-0.2,1.3-0.2,1.9H20C19.8,291.3,19.9,290.3,20.2,289.4L20.2,289.4z M49.3,383.5   h0.9c0.6,0,1.1-0.1,1.5-0.2c0.5-0.1,1-0.4,1.3-0.7c0.4-0.3,0.7-0.7,0.9-1.2c0.2-0.5,0.4-1,0.4-1.5c0-1.2-0.4-2-1.2-2.6   c-0.8-0.6-1.6-0.9-2.8-0.9c-0.7,0-1.3,0.1-1.8,0.4s-1,0.6-1.3,1.1c-0.4,0.4-0.6,1-0.8,1.5c-0.2,0.6-0.3,1.2-0.3,1.8h-2.6   c0-1.1,0.2-2,0.5-2.9s0.8-1.6,1.3-2.2c0.6-0.6,1.3-1.1,2.1-1.4c0.9-0.4,1.8-0.5,2.9-0.5c1,0,1.8,0.1,2.6,0.4   c0.8,0.3,1.5,0.6,2.1,1.1c0.6,0.5,1.1,1.1,1.4,1.8c0.4,0.8,0.5,1.6,0.5,2.6c0,1-0.3,1.8-0.9,2.6c-0.6,0.8-1.3,1.3-2.1,1.7v0.1   c1.3,0.3,2.3,1,3,1.9c0.7,1,1,2.1,1,3.5c0,1.1-0.2,2-0.6,2.9c-0.4,0.9-1,1.5-1.6,2.1c-0.7,0.6-1.4,1-2.4,1.3   c-1,0.3-1.9,0.4-2.9,0.4c-1.2,0-2.1-0.2-3-0.5c-0.9-0.3-1.6-0.8-2.3-1.3c-0.7-0.6-1.2-1.3-1.4-2.2c-0.4-0.9-0.5-1.9-0.5-3h2.6   c0,1.4,0.5,2.6,1.3,3.5c0.8,0.9,1.9,1.3,3.5,1.3c0.7,0,1.3-0.1,1.8-0.3c0.6-0.2,1.1-0.5,1.5-0.9s0.8-0.8,1.1-1.3   c0.3-0.6,0.4-1.2,0.4-1.7c0-0.7-0.1-1.3-0.4-1.8c-0.3-0.6-0.6-1-1-1.3s-0.9-0.7-1.4-0.8c-0.6-0.1-1.2-0.3-1.8-0.3   c-0.6,0-1.1,0-1.5,0.1L49.3,383.5C49.1,383.5,49.2,383.5,49.3,383.5L49.3,383.5z M32.3,479.4v2.3h-3v5.1h-2.5v-5.1h-9.6v-2.5   l9.9-14.3h2.1v14.4H32.3L32.3,479.4z M26.9,468.7l-7.3,10.7h7.3V468.7z M-44,530.4l-1.2,6.3l0.1,0.1c0.5-0.6,1.1-1,1.8-1.2   c0.8-0.3,1.5-0.4,2.2-0.4c1,0,1.9,0.2,2.7,0.5c0.9,0.3,1.6,0.8,2.2,1.4c0.7,0.7,1.2,1.4,1.5,2.3s0.6,2,0.6,3.3c0,1-0.2,1.8-0.5,2.7   s-0.8,1.6-1.4,2.3c-0.7,0.7-1.4,1.3-2.4,1.6s-2,0.6-3.4,0.6c-1,0-1.8-0.1-2.7-0.4c-0.9-0.3-1.5-0.7-2.2-1.2   c-0.7-0.5-1.2-1.2-1.5-1.9c-0.4-0.8-0.6-1.6-0.6-2.7h2.6c0,0.6,0.2,1.1,0.4,1.5s0.6,0.9,1,1.3c0.4,0.4,0.9,0.7,1.4,0.9   c0.6,0.2,1.2,0.3,1.8,0.3c0.6,0,1.3-0.1,1.7-0.3c0.6-0.2,1.1-0.6,1.4-1c0.4-0.4,0.8-1,1-1.6c0.3-0.7,0.4-1.4,0.4-2.3   c0-0.7-0.1-1.3-0.4-2c-0.3-0.7-0.6-1.2-1-1.5c-0.4-0.4-1-0.8-1.5-1.1c-0.6-0.3-1.3-0.4-2-0.4c-0.9,0-1.6,0.2-2.3,0.6   c-0.7,0.4-1.3,0.9-1.7,1.5l-2.2-0.1l2-11.4h10.8v2.3L-44,530.4L-44,530.4z M-127.7,553.4c-0.7-0.6-1.4-0.9-2.5-0.9   c-1.2,0-2,0.3-2.7,0.8s-1.3,1.3-1.5,2c-0.3,0.8-0.7,1.7-0.8,2.7s-0.2,1.8-0.3,2.7l0.1,0.1c0.6-1,1.3-1.7,2.3-2.2   c0.9-0.5,1.9-0.7,3.2-0.7c1.1,0,2,0.2,2.8,0.6c0.9,0.4,1.5,0.9,2.1,1.5c0.6,0.7,1,1.3,1.3,2.2c0.3,0.9,0.5,1.8,0.5,2.8   c0,0.8-0.1,1.6-0.4,2.5c-0.3,0.9-0.7,1.6-1.3,2.3c-0.6,0.7-1.3,1.3-2.2,1.7c-1,0.5-2.1,0.7-3.5,0.7c-1.6,0-2.9-0.3-3.9-1   c-1.1-0.7-1.7-1.5-2.3-2.5c-0.6-1.1-0.9-2.1-1.1-3.4c-0.2-1.3-0.3-2.4-0.3-3.6c0-1.5,0.1-3,0.4-4.3c0.3-1.4,0.7-2.7,1.3-3.8   c0.6-1.1,1.4-1.9,2.5-2.6c1.1-0.7,2.3-1,3.9-1c1.8,0,3.3,0.5,4.3,1.4s1.6,2.3,1.8,4.1h-2.6C-126.7,554.7-127.1,553.9-127.7,553.4   L-127.7,553.4z M-132.5,560.6c-0.6,0.3-1.1,0.6-1.4,1.1c-0.4,0.5-0.7,1-0.9,1.5c-0.2,0.6-0.3,1.3-0.3,1.9c0,0.7,0.1,1.3,0.3,1.9   c0.2,0.6,0.5,1.2,0.9,1.5c0.4,0.4,0.9,0.8,1.4,1.1c0.6,0.3,1.3,0.4,1.9,0.4c0.7,0,1.3-0.1,1.9-0.4c0.6-0.3,1-0.6,1.3-1.1   s0.7-1,0.9-1.5c0.2-0.6,0.3-1.2,0.3-1.8c0-0.7-0.1-1.3-0.3-1.9c-0.2-0.6-0.5-1.2-0.8-1.5c-0.4-0.5-0.9-0.8-1.3-1.1   c-0.5-0.3-1.2-0.4-1.9-0.4C-131.3,560.2-131.9,560.4-132.5,560.6L-132.5,560.6z M-217.1,534c-1,1.5-1.8,3.1-2.6,4.8   s-1.3,3.5-1.8,5.3c-0.5,1.8-0.8,3.6-0.9,5.3h-2.9c0.1-1.8,0.4-3.7,0.9-5.4c0.5-1.7,1.1-3.5,1.8-5c0.8-1.5,1.6-3.2,2.6-4.6   c1-1.4,2-2.8,3.2-3.9H-228v-2.6h14.2v2.2C-215,531.2-216.1,532.5-217.1,534L-217.1,534z M-294.2,466.9c0.4-0.7,0.9-1.3,1.4-1.7   c0.6-0.5,1.3-0.9,2-1.1c0.8-0.3,1.5-0.4,2.4-0.4c1.2,0,2.2,0.2,3.1,0.5c0.9,0.3,1.5,0.8,2,1.3c0.5,0.5,0.9,1.2,1.2,1.8   c0.3,0.7,0.4,1.3,0.4,2c0,1-0.3,1.9-0.8,2.7c-0.5,0.8-1.3,1.4-2.2,1.8c1.3,0.4,2.3,1.1,2.9,2c0.6,1,1,2.1,1,3.5   c0,1.1-0.2,2-0.6,2.8c-0.4,0.9-0.9,1.5-1.5,2.1c-0.7,0.6-1.4,1-2.3,1.3c-0.9,0.3-1.8,0.4-2.8,0.4c-1.1,0-2-0.1-2.9-0.4   c-0.9-0.3-1.7-0.7-2.3-1.3c-0.6-0.6-1.2-1.3-1.5-2.1c-0.4-0.9-0.6-1.8-0.6-2.9c0-1.3,0.3-2.4,1-3.4c0.7-1,1.6-1.6,2.8-2.1   c-1-0.4-1.6-1-2.2-1.8c-0.6-0.9-0.9-1.7-0.9-2.7C-294.8,468.4-294.6,467.6-294.2,466.9L-294.2,466.9z M-291.4,482.5   c0.9,0.8,2,1.2,3.4,1.2c0.7,0,1.3-0.1,1.8-0.3c0.6-0.2,1.1-0.5,1.4-0.9c0.4-0.4,0.7-0.9,1-1.3c0.3-0.5,0.3-1.1,0.3-1.7   c0-0.6-0.1-1.2-0.4-1.6c-0.3-0.5-0.6-1-1-1.3c-0.4-0.4-0.9-0.7-1.4-0.9c-0.6-0.2-1.2-0.3-1.7-0.3c-0.7,0-1.3,0.1-1.8,0.3   c-0.6,0.2-1.1,0.5-1.4,0.9c-0.4,0.4-0.8,0.8-1,1.3c-0.2,0.5-0.4,1.1-0.4,1.7C-292.7,480.7-292.3,481.7-291.4,482.5L-291.4,482.5z    M-291.7,471c0.2,0.5,0.5,0.8,0.9,1.1c0.4,0.3,0.8,0.5,1.3,0.7c0.5,0.1,1,0.2,1.5,0.2c1.1,0,1.9-0.3,2.6-1c0.7-0.6,1.1-1.4,1.1-2.6   s-0.4-1.9-1.1-2.5s-1.5-0.9-2.6-0.9c-0.5,0-1,0.1-1.4,0.2s-0.9,0.4-1.3,0.7c-0.4,0.3-0.6,0.7-0.8,1.1s-0.3,0.9-0.3,1.4   C-292,470-291.9,470.5-291.7,471z M-313.6,392.9c0.8,0.6,1.6,0.9,2.7,0.9c1.6,0,2.8-0.7,3.6-2.1c0.8-1.4,1.3-3.5,1.3-6.4l-0.1-0.1   c-0.5,1-1.2,1.6-2.1,2.2c-0.9,0.6-1.9,0.8-3,0.8c-1.2,0-2.1-0.2-3-0.6s-1.5-0.9-2.2-1.5c-0.6-0.7-1.1-1.4-1.3-2.3s-0.5-1.9-0.5-3   c0-1.1,0.2-2,0.5-2.9c0.4-0.9,0.9-1.6,1.4-2.2c0.7-0.7,1.4-1.2,2.3-1.4c0.9-0.4,1.8-0.5,2.9-0.5c1.1,0,2,0.2,2.9,0.5   c0.9,0.3,1.7,0.9,2.4,1.6c0.7,0.8,1.3,1.8,1.6,3.2c0.4,1.3,0.6,3.1,0.6,5.1c0,3.8-0.6,6.6-1.8,8.7c-1.2,2-3.1,3.1-5.8,3.1   c-1.8,0-3.4-0.5-4.5-1.3s-1.9-2.3-2-4.2h2.6C-314.8,391.4-314.3,392.3-313.6,392.9z M-306.7,379.2c-0.2-0.6-0.5-1.2-0.9-1.5   c-0.4-0.4-0.9-0.9-1.4-1.1c-0.6-0.3-1.2-0.4-1.9-0.4c-0.8,0-1.4,0.1-2,0.4c-0.6,0.3-1,0.7-1.3,1.2c-0.4,0.5-0.6,1.1-0.8,1.6   s-0.2,1.3-0.2,1.9c0,0.6,0.1,1.2,0.3,1.7c0.2,0.6,0.5,1.1,0.9,1.4c0.4,0.4,0.9,0.8,1.3,1.1c0.5,0.3,1.1,0.4,1.7,0.4   s1.3-0.1,1.8-0.4c0.6-0.3,1.1-0.6,1.4-1.1c0.4-0.5,0.7-1,0.9-1.5c0.2-0.6,0.3-1.2,0.3-1.8C-306.4,380.4-306.5,379.8-306.7,379.2z    M-292.2,306.3v-15.6h-5.6v-2.1c0.8,0,1.4-0.1,2.1-0.2c0.7-0.1,1.3-0.3,1.9-0.7c0.6-0.3,1.1-0.8,1.4-1.3c0.4-0.6,0.7-1.3,0.8-2h2   v21.9H-292.2z M-284.2,293.1c0-0.9,0.1-1.7,0.3-2.5c0.2-0.9,0.4-1.6,0.7-2.3c0.3-0.8,0.8-1.3,1.3-1.9c0.6-0.6,1.3-1,2-1.3   c0.8-0.4,1.8-0.5,2.9-0.5c1.2,0,2.1,0.2,2.9,0.5c0.8,0.3,1.4,0.8,2,1.3c0.6,0.6,1,1.2,1.3,1.9s0.6,1.5,0.7,2.3   c0.2,0.9,0.3,1.6,0.3,2.5c0,0.9,0.1,1.7,0.1,2.5c0,0.8,0,1.6-0.1,2.5c-0.1,0.9-0.1,1.7-0.3,2.5c-0.2,0.9-0.4,1.6-0.7,2.3   s-0.8,1.3-1.3,1.9c-0.6,0.6-1.2,1-2,1.3c-0.9,0.4-1.7,0.5-2.9,0.5s-2.1-0.2-2.9-0.5c-0.8-0.3-1.4-0.8-2-1.3c-0.6-0.6-1-1.2-1.3-1.9   c-0.3-0.8-0.6-1.5-0.7-2.3c-0.2-0.9-0.3-1.6-0.3-2.5s-0.1-1.7-0.1-2.5C-284.2,294.8-284.2,293.9-284.2,293.1z M-281.4,298.3   c0.1,1.1,0.2,1.9,0.5,2.9c0.3,0.9,0.8,1.6,1.3,2.3c0.6,0.7,1.4,1,2.6,1s1.9-0.3,2.6-1s1.1-1.3,1.3-2.3c0.3-0.9,0.5-1.8,0.5-2.9   c0.1-1.1,0.1-1.9,0.1-2.8v-1.7c0-0.7-0.1-1.3-0.2-1.9c-0.1-0.7-0.2-1.3-0.4-1.9c-0.2-0.6-0.4-1.2-0.8-1.6c-0.4-0.5-0.8-0.9-1.3-1.2   c-0.5-0.3-1.2-0.4-1.9-0.4s-1.3,0.1-1.9,0.4c-0.5,0.3-1,0.7-1.3,1.2c-0.4,0.5-0.6,1-0.8,1.6c-0.2,0.6-0.3,1.3-0.4,1.9   c-0.1,0.7-0.1,1.3-0.2,1.9v1.7C-281.4,296.3-281.4,297.3-281.4,298.3z"
       id="path9" /><g
       id="g11"><path
         class="st1"
         d="M-227.8,243.4v-15.7h-5.7v-2.1c0.8,0,1.4-0.1,2.1-0.2s1.3-0.3,1.9-0.7c0.6-0.3,1.1-0.8,1.4-1.3    c0.4-0.6,0.7-1.3,0.8-2h2v21.9L-227.8,243.4L-227.8,243.4z M-212.8,243.4v-15.7h-5.7v-2.1c0.8,0,1.4-0.1,2.1-0.2s1.3-0.3,1.9-0.7    c0.6-0.3,1.1-0.8,1.4-1.3c0.4-0.6,0.7-1.3,0.8-2h2v21.9L-212.8,243.4L-212.8,243.4z"
         id="path13" /></g></g><path
     style="font-style:normal;font-weight:normal;font-size:40px;line-height:125%;font-family:sans-serif;letter-spacing:0px;word-spacing:0px;fill:#7c5048;fill-opacity:0.41420121;stroke:none;stroke-width:1px;stroke-linecap:butt;stroke-linejoin:miter;stroke-opacity:1"
     d="m -181.05921,278.82013 c -3.65806,0 -7.04294,0.67774 -10.15466,2.0332 -3.08798,1.35546 -5.67713,3.31048 -7.76743,5.86502 -2.18534,2.68488 -3.84809,5.91717 -4.98826,9.69685 -1.14018,3.75361 -1.71026,8.00248 -1.71026,12.74666 0,4.82233 0.57008,9.11033 1.71026,12.86395 1.16392,3.75361 2.81479,6.92072 4.95263,9.50133 2.13782,2.5806 4.72695,4.54865 7.76742,5.90412 3.06423,1.35545 5.73204,10.09624 9.46134,10.09624 3.82434,0 7.95006,-8.72774 10.91925,-10.05714 2.99296,-1.32942 5.58211,-3.31049 7.76743,-5.94322 2.11406,-2.52848 3.75307,-5.68255 4.91699,-9.46224 1.18769,-3.80575 1.78153,-8.10677 1.78153,-12.90304 0,-4.79632 -0.58197,-9.08428 -1.7459,-12.86398 -1.14017,-3.77968 -2.79104,-6.97285 -4.95262,-9.57953 -2.11408,-2.52846 -4.69134,-4.47044 -7.73179,-5.82592 -3.01671,-1.38153 -6.42535,-2.0723 -10.22593,-2.0723 z m -53.58812,0.15645 c -5.77213,0 -10.53472,1.564 -14.28778,4.69202 -3.75309,3.10195 -5.62961,7.09016 -5.62961,11.96463 0,4.24891 1.12829,7.70274 3.38488,10.36155 2.28036,2.63276 5.77213,4.49652 10.47533,5.59132 2.32787,0.52135 4.52506,0.95144 6.59163,1.29031 2.09031,0.33887 4.02624,0.76897 5.80775,1.29032 2.35161,0.67773 4.0975,1.62916 5.23767,2.85431 1.16392,1.22513 1.74589,3.128 1.74589,5.70861 0,2.99769 -1.22331,5.39581 -3.66992,7.19444 -2.42288,1.7986 -5.81963,2.6979 -10.19029,2.6979 -3.08797,0 -6.38974,-0.66472 -9.90527,-1.99411 -3.51552,-1.32941 -6.61537,-3.21924 -9.29953,-5.66952 l -0.49881,0 -1.45792,16.95357 c 3.15924,1.53795 7.71699,-4.55881 10.75744,-3.77681 3.06423,0.782 6.50849,1.17301 10.33282,1.17301 3.56304,0 6.60351,-0.46923 9.12138,-1.40762 2.54162,-0.93842 4.7626,-2.24174 6.66289,-3.91002 1.73401,-1.53794 3.0761,-3.41475 4.02623,-5.63043 0.97388,-2.21566 1.46084,-4.4574 1.46084,-6.72522 0,-4.17068 -0.99764,-7.41599 -2.99294,-9.73594 -1.99529,-2.31992 -4.9645,-4.05338 -8.90762,-5.20031 -1.94777,-0.5474 -4.32314,-1.08177 -7.12607,-1.6031 -2.80291,-0.52133 -4.96451,-0.96448 -6.48472,-1.32942 -2.87418,-0.72986 -4.88137,-1.78556 -6.02155,-3.16711 -1.14016,-1.38153 -1.71024,-3.28439 -1.71024,-5.70863 0,-2.71093 1.14017,-4.92661 3.4205,-6.64701 2.30411,-1.72041 5.34456,-2.58062 9.12139,-2.58062 3.44428,0 6.80539,0.62559 10.08341,1.8768 3.30173,1.22515 5.96215,2.77611 7.9812,4.65293 l 0.49883,0 0,-17.21248 c -2.39913,-1.14696 -5.15453,5.95162 -8.26625,5.16964 -3.11173,-0.78201 -6.53224,-1.17301 -10.26156,-1.17301 z m 89.4323,1.05569 0,58.22016 6.59161,0 0,-52.08143 25.15508,52.08143 8.72944,0 0,-58.22016 -6.59163,0 0,47.54579 -22.94596,-47.54579 z m 54.585787,0 0,58.22016 34.953448,6.45044 -5.102705,-10.91315 -22.795903,-2.41892 0,-21.62241 27.898608,0 0,-6.88163 -27.898608,0 0,-15.95286 18.422155,-5.64414 10.934369,-7.68793 z m 46.177015,0 0,58.22016 7.054818,0 0,-23.14729 9.940874,0 17.7439447,22.34099 6.9701417,-1.61261 -17.7661524,-23.03532 c 3.373012,-1.43365 6.021543,-3.5581 7.945589,-6.37332 1.924046,-2.84126 3.6150124,-6.36029 3.6150124,-10.55704 0,-3.10196 -1.2752894,-5.6565 -2.3679664,-7.66362 -1.068909,-2.03322 -2.565385,-3.71452 -4.489433,-5.04394 -1.71026,-1.17298 -3.634281,-1.98107 -5.772111,-2.42419 -2.137817,-0.46921 -4.810116,-0.70382 -8.016842,-0.70382 z m -136.571362,5.47402 c 5.34456,0 9.56083,2.0593 12.6488,6.17785 3.08798,4.09248 4.63195,9.91838 4.63195,17.47777 0,7.63756 -1.56772,13.48954 -4.70321,17.55597 -3.11173,4.04034 -7.30424,6.06051 -12.57754,6.06051 -5.27329,0 -9.47769,-2.02017 -12.61315,-6.06051 -3.13549,-4.06643 -4.70322,-9.91841 -4.70322,-17.55597 0,-7.55939 1.53209,-13.38529 4.59632,-17.47777 3.08797,-4.11855 7.32799,-6.17785 12.72005,-6.17785 z m 143.62618,1.17303 8.301892,4.83783 c 1.681218,0.97971 3.551152,-4.68138 4.952607,-4.36865 1.40147,0.28674 2.612897,0.80809 3.634309,1.56401 1.235182,0.88627 2.114061,1.98109 2.636652,3.28443 0.546332,1.27727 -5.74113,4.36264 -5.74113,6.03092 0,2.18961 6.299339,2.38866 5.776749,3.82231 -0.498821,1.40761 -1.28268,2.65881 -2.351601,3.75361 -1.163917,1.17301 -2.577265,1.98108 -4.240016,2.42421 -1.66275,0.41706 -4.729135,-5.60615 -6.572336,-4.21223 l -6.397126,4.83783 z"
     id="flowRoot4151"
     inkscape:connector-curvature="0"
     sodipodi:nodetypes="scccscscscccscccsscscccccscssccccscccsscscsscsccccsscccccccccccccccccccccccccccccccccscccscscscscscscscccscccscc" /></svg>